<?xml version="1.0" encoding="utf-8"?>
<!-- Generator: Adobe Illustrator 16.2.1, SVG Export Plug-In . SVG Version: 6.00 Build 0)  -->
<!DOCTYPE svg PUBLIC "-//W3C//DTD SVG 1.1//EN" "http://www.w3.org/Graphics/SVG/1.1/DTD/svg11.dtd">
<svg version="1.1" xmlns="http://www.w3.org/2000/svg" xmlns:xlink="http://www.w3.org/1999/xlink" x="0px" y="0px" width="256px"
	 height="256px" viewBox="0 0 256 256" enable-background="new 0 0 256 256" xml:space="preserve">
<g id="圖層_1">
</g>
<g id="圖層_2">
	<g>
		<linearGradient id="SVGID_1_" gradientUnits="userSpaceOnUse" x1="67.6465" y1="104.9756" x2="198.2129" y2="155.3455">
			<stop  offset="0" style="stop-color:#956134"/>
			<stop  offset="1" style="stop-color:#E68247"/>
		</linearGradient>
		<path fill="url(#SVGID_1_)" d="M176.798,59.738c10.932,7.944,14.493,23.726,11.315,42.433
			c-2.806,16.525-6.192,34.106-19.066,51.826c-12.34,16.978-27.104,29.078-41.374,36.979c-17.48,9.68-36.827,9.459-50.285,5.556
			c-11.273-3.271-13.695-20.26-8.185-42.118c3.692-14.636,17.933-17.599,28.944-32.754c11.593-15.953,8.813-40.468,22.26-48.476
			C138.799,62.231,164.905,51.094,176.798,59.738z"/>
		<g>
			<path fill="#D3915B" d="M181.653,101.855c8.283,7.738,1.663,18.53-1.75,32.539c-3.011,12.375-14.314,25.89-25.362,37.723
				c-10.593,11.334-22.869,18.543-34.557,22.571c-14.317,4.943-32.119,6.826-42.597,1.843c-8.777-4.176-14.915-20.025-9.5-36.132
				c3.624-10.782,19.26-10.557,28.71-20.676c9.949-10.649,20.165-29.823,31.2-34.06C142.898,99.877,172.641,93.432,181.653,101.855z
				"/>
			<g>
				<path fill="#AA6D3F" d="M180.576,102.933c8.203,9.891-2.499,34.241-7.447,43.343c-7.754,14.268-21.135,27.871-34.277,37.276
					c-23.268,16.651-76.847,26.374-70.782-17.933c1.806-13.193,17.108-15.49,26.294-21.834c8.016-5.534,14.109-16.752,19.92-24.211
					c11.607-14.901,49.137-29.192,66.603-16.403c1.586,1.162,3.104-1.482,1.535-2.631c-9.417-6.897-23.068-4.207-33.729-2.315
					c-15.457,2.744-26.46,7.104-36.562,19.195c-5.766,6.9-10.66,14.454-16.608,21.228c-6.177,7.03-15.666,7.869-22.696,13.368
					c-9.828,7.685-11.179,24.646-5.448,35.401c14.312,26.848,59.19,10.215,77.174-4.229c13.342-10.717,30.239-27.293,35.523-44.227
					c3.729-11.949,11.815-27.142,2.657-38.184C181.475,99.264,179.332,101.433,180.576,102.933z"/>
			</g>
		</g>
		<linearGradient id="SVGID_2_" gradientUnits="userSpaceOnUse" x1="100.8169" y1="199.5547" x2="132.1299" y2="110.6987">
			<stop  offset="0" style="stop-color:#6A3906"/>
			<stop  offset="0.0873" style="stop-color:#704111;stop-opacity:0.9127"/>
			<stop  offset="0.2386" style="stop-color:#81582D;stop-opacity:0.7614"/>
			<stop  offset="0.436" style="stop-color:#9D7C5B;stop-opacity:0.564"/>
			<stop  offset="0.6716" style="stop-color:#C3AF9B;stop-opacity:0.3284"/>
			<stop  offset="0.937" style="stop-color:#F3EFEB;stop-opacity:0.063"/>
			<stop  offset="1" style="stop-color:#FFFFFF;stop-opacity:0"/>
		</linearGradient>
		<path fill="url(#SVGID_2_)" d="M120.999,148.636c10.51,4.249,39.226,7.375,37.878,17.727
			c-1.182,9.144-21.751,19.939-29.329,26.298c-7.27,6.087-16.261,8.339-25.098,8.191c-10.825-0.182-24.69-3.856-33.436-10.953
			c-7.328-5.945-7.37-11.932-4.645-23.398c1.821-7.674,1.363-6.133,7.85-11.568c6.822-5.723,13.342-10.212,21.643-10.421
			C107.223,144.231,105.411,142.333,120.999,148.636z"/>
		<path fill="#7B4E30" d="M111.373,119.354c-2.871,5.621-7.946,6.371-9.94,5.353c-1.993-1.017-0.154-3.421,2.714-9.042
			c2.871-5.618,3.089-7.979,5.082-6.962C111.222,109.723,114.242,113.735,111.373,119.354z"/>
		<g>
			<path fill="#3E3A39" d="M174.104,62.431c26.952,22.7,3.377,75.579-14.109,96.958c-9.45,11.556-21.372,20.872-34.244,28.299
				c-13.262,7.65-48.729,15.612-54.733-4.594c-4.681-15.749,2.083-33.426,14.101-43.391c8.322-6.906,16.678-14.047,20.879-24.318
				c4.85-11.854,5.409-30.816,16.332-38.912c12.09-8.96,38.05-21.627,52.546-13.446c4.282,2.419,8.12-4.163,3.845-6.576
				c-15.047-8.491-33.399-0.068-47.565,6.576c-19.046,8.935-23.102,18.745-28.364,38.395c-3.407,12.724-10.01,21.997-19.966,30.388
				c-5.957,5.021-13.404,10.09-16.035,17.87c-4.103,12.132-8.81,34.48,1.503,45.198c10.854,11.282,32.103,8.69,45.831,5.607
				c20.107-4.513,38.067-20.768,51.258-35.707c21.004-23.789,44.301-82.307,14.109-107.732
				C175.759,53.903,170.344,59.263,174.104,62.431z"/>
		</g>
		<path opacity="0.2" fill="#C9A063" d="M172.177,79.578c2.342-1.404,5.478,5.236,3.809,12.179c0,0-3.303,26.919-14.22,33.007
			c-3.714,2.07-7.617-5.77,0-20.51c1.256-2.428,4.153-2.297,5.52-9.293C168.07,90.938,167.371,82.462,172.177,79.578z"/>
		<path opacity="0.2" fill="#C9A063" d="M140.536,141.253c4.796-0.443,9.837,6.656,5.441,12.33c0,0-10.824,23.116-33.125,24.759
			c-7.585,0.557-13.922-7.894,3.341-18.504c2.854-1.743,8.486-0.604,12.286-6.433C130.67,150.055,130.69,142.161,140.536,141.253z"
			/>
	</g>
</g>
</svg>
