<?xml version="1.0" encoding="utf-8"?>
<!-- Generator: Adobe Illustrator 16.2.1, SVG Export Plug-In . SVG Version: 6.00 Build 0)  -->
<!DOCTYPE svg PUBLIC "-//W3C//DTD SVG 1.1//EN" "http://www.w3.org/Graphics/SVG/1.1/DTD/svg11.dtd">
<svg version="1.1" xmlns="http://www.w3.org/2000/svg" xmlns:xlink="http://www.w3.org/1999/xlink" x="0px" y="0px" width="256px"
	 height="256px" viewBox="0 0 256 256" enable-background="new 0 0 256 256" xml:space="preserve">
<g id="圖層_1">
</g>
<g id="圖層_2">
	<g>
		<linearGradient id="SVGID_1_" gradientUnits="userSpaceOnUse" x1="95.8979" y1="95.4707" x2="177.1262" y2="211.0662">
			<stop  offset="0" style="stop-color:#CC6B0A"/>
			<stop  offset="1" style="stop-color:#6A3906"/>
		</linearGradient>
		<path fill="url(#SVGID_1_)" d="M207.499,112.751c0,18.499-16.001,38.026-32.649,49.032c-13.172,8.707-53.844,34.414-72.357,34.414
			c-19.175,0-33.408-4.165-46.768-13.437c-15.84-10.999-2.647-33.073-2.647-51.052c0-16.552,4.062-34.11,17.77-44.965
			c13.735-10.882,32.726-26.437,53.706-26.437c24.312,0,39.056,5.353,52.944,19.413C187.55,89.898,207.499,98.836,207.499,112.751z"
			/>
		<g opacity="0.8">
			<path fill="#E28F50" d="M181.854,106.298c0,11.396-19.389,22.229-30.829,29.013c-9.048,5.359-36.696,27.354-49.415,27.354
				c-13.176,0-17.295,7.476-26.472,1.765c-10.884-6.777,0.622-35.376,0.622-46.455c0-10.196,4.965-15.687,14.379-22.374
				c9.439-6.704,20.312-21.619,34.729-21.619c16.704,0,26.831,3.298,36.373,11.96C168.15,92.214,181.854,97.723,181.854,106.298z"/>
		</g>
		<path fill="#C17237" d="M99.268,132.822c-1.48-2.285,3.839-14.174,9.59-19.833c4.551-4.474,8.936-10.686,16.313-15.463
			c4.346-2.816,6.369-1.772,10.854-5.012c3.402-2.461,12.58-8.155,14.56-6.177c1.214,1.213-2.964,3.274-7.941,8.824
			c-6.915,7.71-11.068,9.358-5.405,8.052c7.169-1.654,9.347-5.357,15.442-8.162c6.577-3.03,4.258,0.224,1.875,2.757
			c-1.91,2.027-8.41,8.331-10.93,10.785c-3.562,3.468-7.757,7.121-12.654,10.292c-9.688,6.277-13.124,8.527-19.786,10.372
			C106.364,130.595,100.385,134.549,99.268,132.822z"/>
		<g>
			<path fill="#3E3A39" d="M203.087,112.751c-2.586,34.014-39.936,52.548-66.662,66.76c-12.536,6.666-25.155,12.471-39.541,12.15
				c-10.832-0.245-21.088-3.078-30.779-7.752c-15.409-7.432-14.535-18.162-11.607-32.246c2.996-14.404,2.337-29.33,6.579-43.4
				c5.846-19.385,31.487-34.393,49.339-41.101c16.943-6.367,39.162-1.772,54.142,7.4c6.331,3.877,11.124,9.938,16.998,14.432
				C189.237,94.872,201.689,101.865,203.087,112.751c0.715,5.563,9.548,5.632,8.824,0c-2.404-18.717-22.329-27.596-34.789-39.488
				c-15.381-14.677-37.304-18.286-57.771-17.056c-20.816,1.249-40.636,17.514-55.453,30.867
				c-17.96,16.183-14.458,45.647-18.892,66.97c-9.015,43.352,47.623,53.396,78.796,41.108
				c34.882-13.753,84.923-40.542,88.108-82.401C212.344,107.074,203.517,107.115,203.087,112.751z"/>
		</g>
	</g>
</g>
</svg>
