<?xml version="1.0" encoding="utf-8"?>
<!-- Generator: Adobe Illustrator 16.2.1, SVG Export Plug-In . SVG Version: 6.00 Build 0)  -->
<!DOCTYPE svg PUBLIC "-//W3C//DTD SVG 1.1//EN" "http://www.w3.org/Graphics/SVG/1.1/DTD/svg11.dtd">
<svg version="1.1" xmlns="http://www.w3.org/2000/svg" xmlns:xlink="http://www.w3.org/1999/xlink" x="0px" y="0px" width="256px"
	 height="256px" viewBox="0 0 256 256" enable-background="new 0 0 256 256" xml:space="preserve">
<g id="圖層_1">
</g>
<g id="圖層_2">
	<g>
		<path fill="#F9C186" d="M213.573,127.913c0,50.954-26.354,87.34-61.811,102.197c-4.498,1.882-11.5,9.316-20.125,9.316
			c-8.146,0-16.841-9.855-20.853-11.13c-38.085-12.084-63.483-44.293-63.483-96.123c0-51.827,22.523-86.549,61.336-104.277
			c7.19-3.284,20.602-11.495,28.27-11.496c9.105-0.001,16.208,8.522,21.61,11.409C193.315,46.405,213.573,77.062,213.573,127.913z"
			/>
		<g>
			<path fill="#3E3A39" d="M207.587,127.915c-0.416,26.45-7.421,51.655-24.147,72.499c-6.511,8.114-14.665,14.73-23.422,20.255
				c-10.421,6.572-28.232,18.243-39.322,11.675c-17.025-10.083-35.604-16.795-49.468-31.716
				c-18.126-19.506-22.997-47.322-22.667-72.981c0.321-24.965,7.535-49.758,23.198-69.413c14.021-17.597,36.936-29.833,57.88-37.293
				c10.312-3.674,22.3,8.461,30.838,13.489c9.556,5.628,17.837,12.989,25.025,21.384C202.48,75.64,207.278,102.625,207.587,127.915
				c0.056,4.631,7.243,4.637,7.188,0c-0.32-26.254-5.365-53.489-22.104-74.557c-7.316-9.209-15.862-16.733-25.606-23.273
				c-9.86-6.621-20.558-15.754-32.55-17.277c-9.67-1.228-21.943,8.061-30.084,11.986c-12.38,5.97-23.356,13.367-33.072,23.109
				c-19.887,19.942-27.989,47.902-29.81,75.304c-1.765,26.543,3.488,55.913,20.289,77.255c7.981,10.14,17.523,18.076,28.802,24.305
				c5.736,3.168,12.14,4.697,17.93,7.653c5.719,2.92,10.133,7.422,16.211,9.922c10.346,4.257,21.098-6.79,29.601-10.538
				c12.16-5.359,22.776-13.905,31.77-23.564c20.142-21.633,28.17-51.414,28.624-80.324
				C214.847,123.278,207.66,123.285,207.587,127.915z"/>
		</g>
		<g>
			<path fill="#E28259" d="M149.247,41.562c25.501,9.783,55.352,38.88,48.057,97.042c-4.376,34.892-16.447,43.529-16.71,34.892
				c-0.417-13.736,12.308-23.556,9.762-60.135c-0.576-8.286-0.484-16.198-8.168-32.322c-4.452-9.35-10.011-20.972-32.94-32.815
				C141.2,44.065,129.158,33.857,149.247,41.562z"/>
			<path fill="#E28259" d="M110.209,212.305c-25.313-9.376-59.307-42.757-49.433-95.386c1.448-7.721,9.258-35.042,11.43-25.34
				c2.6,11.614-6.818,15.101-4.967,48.449c0.416,7.555,0.177,14.76,7.553,29.575c4.271,8.593,12.719,24.098,35.417,35.3
				C118.177,208.835,130.147,219.688,110.209,212.305z"/>
			<path fill="#E28259" d="M146.869,71.817c4.425,2.233,6.114,3.893,6.033,11.905c-0.044,4.154,1.493,7.766-7.14,16.35
				c-2.749,2.735,1.563-5.544,1.428-14.072c-0.05-3.055-0.05-3.055,0.018-8.169C147.208,77.831,138.25,67.47,146.869,71.817z"/>
			<path fill="#E28259" d="M184.822,77.093c0,0,4.336,23.362-1.185,38.021c-1.688,4.479-6.422,15.478-9.489,20.826
				c0,0-15.53,20.097,3.85,3.463c0,0,4.839-7.929,7.656-16.036c3.741-10.77,5.977-13.907,7.273-21.547L184.822,77.093z"/>
			<path fill="#E28259" d="M190.662,136.463c0,0-4.621,9.616-8.765,15.595c0,0-2.953,3.136-5.211,5.905
				c-0.935,1.146-3.87,7.662,6.153,0.404c0,0,5.345-7.355,6.959-10.401L190.662,136.463z"/>
			<path fill="#E28259" d="M70.365,115.414c0,0,20.305,30.057,28.016,32.974c8.666,3.282,25.698,10.752,37.359,1.323
				c4.594-3.718,11.864-32.326,9.859,0.504c-0.099,1.599-5.266,8.235-9.859,9.104c-6.762,1.274-6.852,0.74-25.321,0
				c0,0-24.687-7.805-29.485-17.198c0,0-13.385-16.871-14.967-19.198C65.966,122.923,61.743,106.689,70.365,115.414z"/>
			<path fill="#E28259" d="M111.356,152.879c0,0,1.314,13.548,8.878,14.4c3.01,0.338,5.848,3.049,11.484,3.049
				c4.995,0-6.946,8.859-19.57-3.049c0,0-7.881-5.803-4.392-14.4H111.356z"/>
			<path fill="#E28259" d="M114.498,39.227c0,0-7.402,1.871-16.452,9.075c-4.905,3.906-7.07,3.412-12.385,10.797
				c-2.555,3.543-5.361,6.32-8.439,11.128c-5.593,8.734-8.791,24.748,8.439,0.179c2.562-3.654,7.286-10.654,11.361-14.392
				c0,0,0,0,6.8-4.11l19.829-14.051C123.651,37.852,123.876,35.002,114.498,39.227z"/>
			<path fill="#E28259" d="M110.209,44.892c0,0,6.707,1.927,7.592,15.851c0.352,5.522-3.119,12.833,2.73,21.984
				c5.392,8.428,5.773,6.795,8.963,10.28c0,0,7.878,8.145,3.94,7.599c-3.646-0.504-9.989-6.176-12.903-8.709
				c-2.73-2.374-6.052-6.219-7.739-11.103c0,0-2.072-4.412-4.062-18.865c-0.422-3.049-7.39-11.853-7.39-11.853L110.209,44.892z"/>
			<path fill="#E28259" d="M155.854,162.056c0,0-7.499,9.509-15.397,12.272c0,0-14.829,7.016,1.86,4.18
				c0,0,10.453-1.033,16.088-11.494C158.405,167.014,167.348,151.679,155.854,162.056z"/>
			<path fill="#E28259" d="M61.989,145.993c0,0,0.684,11.274,15.76,17.196c0,0,17.168-2.567,15.585-0.347
				c0,0-5.019,6.526-15.585,5.937c-4.41-0.244-7.961-4.986-12.816-11.393L61.989,145.993z"/>
			<path fill="#E28259" d="M77.715,177.073c0,0,19.882,9.715,33.583,7.694c0,0,8.641,1.534,23.239-1.03
				c0,0,12.732-2.153,20.721-4.604c8.03-2.464-8.158,12.197-31.607,11.211c0,0-8.791-0.163-22.951,0c0,0-14.674-2.777-19.631-4.111
				L77.715,177.073z"/>
			<path fill="#E28259" d="M125.606,187.41c0,0,1.127,9.265-3.181,14.351c0,0-1.435,2.74,2.156,2.878
				c2.963,0.115,2.201,0.623,7.487-8.615c1.017-1.783,2.116-7.84,2.116-7.84L125.606,187.41z"/>
			<path fill="#E28259" d="M81.178,96.096c0,0,8.487,11.128,29.525,9.535c0,0,9.498-1.976,16.452-4.688
				c0,0,6.715,4.146-14.511,9.434c0,0-4.863,4.159-26.438-4.745l-15.721-9.568C70.486,96.062,63.511,82.215,81.178,96.096z"/>
			<path fill="#E28259" d="M180.594,71.182c0,0-11.574,36.582-32.99,46.203c0,0-20.559,12.058,7.473,3.068
				c0,0,12.835-8.789,19.334-18.877l8.698-27.462L180.594,71.182z"/>
			<path fill="#E28259" d="M172.86,182.938c-3.517,4.656-2.805,9.539-19.19,14.051c0,0-32.745,11.963-7.041,9.202
				c0,0,16.897-3.67,22.392-8.907c0,0,7.922-9.231,8.872-16.454C178.061,179.547,173.652,181.885,172.86,182.938z"/>
			<path fill="#E28259" d="M100.7,107.916c0,0-1.111,10.641,0,15.023c0,0-2.054,11.123,19.175,12.642c0,0,20.109-3.113,3.776,4.913
				c0,0-25.005,1.818-30.216-14.543c0,0-3.632-8.035,0-18.876L100.7,107.916z"/>
			<path fill="#E28259" d="M113.705,117.568c0,0,13.441-2.292,16.342-4.729c0,0,6.404,7.397-1.883,7.397
				C128.164,120.237,100.7,122.939,113.705,117.568z"/>
			<path fill="#E28259" d="M98.646,77.093c0,0-0.651,0.887,6.792,8.584c0,0,16.215,15.145-3.403,4.241
				c0,0-11.509-9.125-10.214-12.825C91.821,77.093,87.336,63.794,98.646,77.093z"/>
			<path fill="#E28259" d="M152.983,47.599c0,0,6.034,8.211-9.854,11.166c0,0,3.74,13.053,18.934-7.816L152.983,47.599z"/>
			<path fill="#E28259" d="M165.124,107.916c0,0,3.033,13.528-2.641,22.492c0,0-5.789,7.186-7.033,9.254
				c-2.284,3.8-6.568,5.396,4.899,3.021c0,0,8.772-4.741,11.036-22.177l-0.27-16.74L165.124,107.916z"/>
		</g>
	</g>
</g>
</svg>
