<?xml version="1.0" encoding="utf-8"?>
<!-- Generator: Adobe Illustrator 16.2.1, SVG Export Plug-In . SVG Version: 6.00 Build 0)  -->
<!DOCTYPE svg PUBLIC "-//W3C//DTD SVG 1.1//EN" "http://www.w3.org/Graphics/SVG/1.1/DTD/svg11.dtd">
<svg version="1.1" xmlns="http://www.w3.org/2000/svg" xmlns:xlink="http://www.w3.org/1999/xlink" x="0px" y="0px" width="256px"
	 height="256px" viewBox="0 0 256 256" enable-background="new 0 0 256 256" xml:space="preserve">
<g id="圖層_1">
</g>
<g id="圖層_2">
	<g>
		<path fill="#7C564D" d="M190.855,153.1c0,36.644-26.319,36.829-61.412,36.829s-63.542,0.959-63.542-35.682
			c0-14.702,8.647-36.958,16.397-47.953c11.569-16.418,25.065-40.145,46.076-40.145c17.548,0,33.993,20.331,43.087,34.571
			C183.358,119.352,190.855,134.778,190.855,153.1z"/>
		<linearGradient id="SVGID_1_" gradientUnits="userSpaceOnUse" x1="127.6816" y1="175.9854" x2="126.6653" y2="-43.685">
			<stop  offset="0.0013" style="stop-color:#543400"/>
			<stop  offset="0.0188" style="stop-color:#563604;stop-opacity:0.9824"/>
			<stop  offset="0.1313" style="stop-color:#62401C;stop-opacity:0.8695"/>
			<stop  offset="0.2593" style="stop-color:#6C472F;stop-opacity:0.7411"/>
			<stop  offset="0.4097" style="stop-color:#724D3C;stop-opacity:0.5901"/>
			<stop  offset="0.6037" style="stop-color:#765044;stop-opacity:0.3953"/>
			<stop  offset="0.9976" style="stop-color:#775146;stop-opacity:0"/>
		</linearGradient>
		<path fill="url(#SVGID_1_)" d="M190.796,148.542c0,28.891-28.311,43.981-63.233,43.981c-34.922,0-64.06-16.358-63.227-43.981
			c0.732-24.279,28.305-43.979,63.227-43.979C162.485,104.563,190.796,124.251,190.796,148.542z"/>
		<path opacity="0.2" fill="#C9A063" d="M139.468,96.202c0,0,13.981,35.001-2.583,85.526
			C136.884,181.729,146.323,129.494,139.468,96.202z"/>
		<path opacity="0.2" fill="#C9A063" d="M121.667,103.796c0,0-14.023,32.133,2.436,77.797
			C124.103,181.593,114.764,134.234,121.667,103.796z"/>
		<path opacity="0.2" fill="#C9A063" d="M154.544,127.563c0,0,7.262,30.326-13.611,54.165
			C140.933,181.729,156.786,154.647,154.544,127.563z"/>
		<path opacity="0.1" fill="#C9A063" d="M104.563,134.189c0,0-9.188,32.542,15.745,47.403
			C120.308,181.593,102.554,167.332,104.563,134.189z"/>
		<path fill="#C6B18F" d="M142.722,185.912c0,5.547-6.049,4.017-13.278,4.017c-7.229,0-12.902,1.53-12.902-4.017
			c0-5.549,5.861-10.045,13.091-10.045C136.861,175.867,142.722,180.363,142.722,185.912z"/>
		<g>
			<path fill="#3E3A39" d="M187.089,153.1c-0.974,34.128-31.215,33.045-57.896,33.063c-28.055,0.021-61.565,1.576-59.853-35.737
				c0.732-16.024,8.971-32.486,17.972-45.389c9.221-13.217,18.248-28.575,34.245-34.207c18.575-6.537,35.517,15.782,44.505,28.658
				C177.25,115.506,186.409,133.266,187.089,153.1c0.165,4.844,7.7,4.858,7.532,0c-0.78-22.788-11.51-42.318-24.333-60.679
				c-10.074-14.423-23.782-28.563-42.163-30.038c-17.666-1.418-31.271,16.33-40.356,28.812
				c-13.128,18.033-23.186,36.79-25.96,59.231c-4.958,40.071,33.728,43.251,63.351,43.27c32.516,0.023,68.294,0.265,69.462-40.596
				C194.759,148.239,187.227,148.254,187.089,153.1z"/>
		</g>
		<ellipse fill="#C9A063" cx="126.91" cy="178.657" rx="0.5" ry="0.402"/>
		<ellipse fill="#C9A063" cx="124.101" cy="181.731" rx="0.502" ry="0.403"/>
		<ellipse fill="#C9A063" cx="124.101" cy="183.806" rx="0.502" ry="0.403"/>
		<path fill="#C9A063" d="M121.699,183.402c0,0.224-0.224,0.4-0.5,0.4c-0.277,0-0.503-0.177-0.503-0.4s0.227-0.405,0.503-0.405
			C121.476,182.997,121.699,183.179,121.699,183.402z"/>
		<ellipse fill="#C9A063" cx="118.444" cy="184.209" rx="0.502" ry="0.406"/>
		<ellipse fill="#C9A063" cx="124.603" cy="177.848" rx="0.5" ry="0.403"/>
		<ellipse fill="#C9A063" cx="131.491" cy="177.848" rx="0.503" ry="0.403"/>
		<ellipse fill="#C9A063" cx="128.628" cy="177.441" rx="0.5" ry="0.406"/>
		<ellipse fill="#C9A063" cx="129.632" cy="179.831" rx="0.503" ry="0.402"/>
		<ellipse fill="#C9A063" cx="129.632" cy="183.806" rx="0.503" ry="0.403"/>
		<ellipse fill="#C9A063" cx="127.412" cy="180.643" rx="0.501" ry="0.403"/>
		<ellipse fill="#C9A063" cx="132.746" cy="180.643" rx="0.502" ry="0.403"/>
		<ellipse fill="#C9A063" cx="130.99" cy="181.328" rx="0.502" ry="0.403"/>
		<ellipse fill="#C9A063" cx="126.911" cy="182.997" rx="0.502" ry="0.402"/>
		<ellipse fill="#C9A063" cx="137.58" cy="179.831" rx="0.502" ry="0.402"/>
		<ellipse fill="#C9A063" cx="136.383" cy="181.729" rx="0.502" ry="0.403"/>
		<ellipse fill="#C9A063" cx="134.25" cy="182.591" rx="0.501" ry="0.406"/>
		<ellipse fill="#C9A063" cx="132.246" cy="184.209" rx="0.502" ry="0.406"/>
		<ellipse fill="#C9A063" cx="139.84" cy="181.731" rx="0.502" ry="0.403"/>
		<ellipse fill="#C9A063" cx="138.08" cy="183.806" rx="0.502" ry="0.403"/>
		<ellipse fill="#C9A063" cx="139.84" cy="184.615" rx="0.502" ry="0.402"/>
		<ellipse fill="#C9A063" cx="133.749" cy="177.848" rx="0.502" ry="0.403"/>
		<ellipse fill="#C9A063" cx="136.577" cy="179.06" rx="0.502" ry="0.403"/>
		<ellipse fill="#C9A063" cx="121.699" cy="180.237" rx="0.503" ry="0.402"/>
	</g>
</g>
</svg>
