<?xml version="1.0" encoding="utf-8"?>
<!-- Generator: Adobe Illustrator 16.2.1, SVG Export Plug-In . SVG Version: 6.00 Build 0)  -->
<!DOCTYPE svg PUBLIC "-//W3C//DTD SVG 1.1//EN" "http://www.w3.org/Graphics/SVG/1.1/DTD/svg11.dtd">
<svg version="1.1" xmlns="http://www.w3.org/2000/svg" xmlns:xlink="http://www.w3.org/1999/xlink" x="0px" y="0px" width="256px"
	 height="256px" viewBox="0 0 256 256" enable-background="new 0 0 256 256" xml:space="preserve">
<g id="圖層_1">
</g>
<g id="圖層_2">
	<g>
		<path fill="#5D393C" d="M166.376,193.327c-30.523,18.026-72.429,3.581-93.601-32.268C51.604,125.21,59.186,81.538,89.709,63.511
			c14.707-8.685,32.052-9.832,48.45-4.678c17.638,5.542,34.18,18.371,45.15,36.947c10.586,17.924,13.981,37.804,10.917,55.455
			C191.164,168.888,181.638,184.314,166.376,193.327z"/>
		<path fill="#88544D" d="M121.579,173.761c-22.208,7.341-47.848-9.824-57.273-38.337c-9.421-28.511,0.948-57.575,23.158-64.912
			c10.702-3.536,17.603,2.654,27.7,9.021c10.858,6.848,20.884,5.326,25.767,20.101c4.711,14.256,0.096,41.648-4.095,53.395
			C132.647,164.778,132.688,170.093,121.579,173.761z"/>
		<path fill="#ECBDB4" d="M96.158,76.841c2.221,4.354-0.019,9.945-4.999,12.483c-4.977,2.54-10.818,1.071-13.039-3.285
			c-2.221-4.354,0.017-9.942,4.999-12.485C88.097,71.018,93.937,72.487,96.158,76.841z"/>
		<g>
			<path fill="#3E3A39" d="M163.998,189.257C101.697,222.515,41.811,135.266,76.589,81.76c22.644-34.838,69.522-21.459,93.26,3.466
				C197.355,114.107,199.161,166.179,163.998,189.257c-5.056,3.32-0.34,11.482,4.755,8.138
				c80.519-52.852-12.496-192.287-90.127-131.689C47.123,90.3,52.791,138.315,71.719,168.192
				c20.414,32.216,62.672,47.544,97.034,29.203C174.117,194.532,169.355,186.397,163.998,189.257z"/>
		</g>
		<ellipse fill="#935F5A" cx="165.379" cy="141.722" rx="0.827" ry="1.178"/>
		<ellipse fill="#935F5A" cx="148.286" cy="131.953" rx="0.827" ry="1.178"/>
		<ellipse fill="#935F5A" cx="176.096" cy="145.885" rx="0.827" ry="1.178"/>
		<ellipse fill="#935F5A" cx="156.623" cy="139.366" rx="0.827" ry="1.178"/>
		<ellipse fill="#935F5A" cx="164.551" cy="154.051" rx="0.827" ry="1.178"/>
		<ellipse fill="#935F5A" cx="176.922" cy="161.668" rx="0.827" ry="1.178"/>
		<ellipse fill="#935F5A" cx="170.757" cy="172.504" rx="0.827" ry="1.178"/>
		<ellipse fill="#935F5A" cx="139.662" cy="167.479" rx="0.827" ry="1.178"/>
		<ellipse fill="#935F5A" cx="134.553" cy="149.026" rx="0.827" ry="1.178"/>
		<ellipse fill="#935F5A" cx="126.387" cy="184.439" rx="0.827" ry="1.178"/>
		<ellipse fill="#935F5A" cx="157.451" cy="125.076" rx="0.827" ry="1.178"/>
		<ellipse fill="#935F5A" cx="170.757" cy="128.42" rx="0.827" ry="1.178"/>
		<ellipse fill="#935F5A" cx="177.75" cy="133.131" rx="0.827" ry="1.178"/>
		<ellipse fill="#935F5A" cx="140.488" cy="85.815" rx="0.827" ry="1.178"/>
		<ellipse fill="#935F5A" cx="148.286" cy="80.262" rx="0.827" ry="1.178"/>
		<ellipse fill="#935F5A" cx="151.597" cy="150.205" rx="0.827" ry="1.178"/>
		<ellipse fill="#935F5A" cx="137.035" cy="140.544" rx="0.827" ry="1.178"/>
		<ellipse fill="#935F5A" cx="151.597" cy="160.49" rx="0.827" ry="1.178"/>
		<ellipse fill="#935F5A" cx="116.651" cy="156.407" rx="0.827" ry="1.178"/>
		<ellipse fill="#935F5A" cx="106.917" cy="149.026" rx="0.827" ry="1.178"/>
		<ellipse fill="#935F5A" cx="101.871" cy="162.846" rx="0.827" ry="1.178"/>
		<ellipse fill="#935F5A" cx="115.825" cy="168.656" rx="0.827" ry="1.178"/>
		<ellipse fill="#935F5A" cx="92.233" cy="154.051" rx="0.827" ry="1.178"/>
		<ellipse fill="#935F5A" cx="128.042" cy="140.544" rx="0.827" ry="1.178"/>
		<ellipse fill="#935F5A" cx="123.098" cy="130.775" rx="0.827" ry="1.178"/>
		<ellipse fill="#935F5A" cx="112.452" cy="138.188" rx="0.827" ry="1.178"/>
		<ellipse fill="#935F5A" cx="83.125" cy="137.011" rx="0.827" ry="1.178"/>
		<ellipse fill="#935F5A" cx="101.043" cy="130.775" rx="0.827" ry="1.178"/>
		<ellipse fill="#935F5A" cx="156.623" cy="171.327" rx="0.827" ry="1.178"/>
		<ellipse fill="#935F5A" cx="149.94" cy="183.261" rx="0.827" ry="1.178"/>
		<ellipse fill="#935F5A" cx="152.423" cy="115.104" rx="0.827" ry="1.178"/>
		<ellipse fill="#935F5A" cx="136.207" cy="126.253" rx="0.827" ry="1.178"/>
		<ellipse fill="#935F5A" cx="131.181" cy="116.282" rx="0.827" ry="1.178"/>
		<ellipse fill="#935F5A" cx="130.355" cy="100.264" rx="0.827" ry="1.178"/>
		<ellipse fill="#935F5A" cx="119.132" cy="91.748" rx="0.827" ry="1.178"/>
		<ellipse fill="#935F5A" cx="121.444" cy="104.425" rx="0.827" ry="1.178"/>
		<ellipse fill="#935F5A" cx="106.091" cy="86.993" rx="0.827" ry="1.178"/>
		<ellipse fill="#935F5A" cx="111.625" cy="108.038" rx="0.827" ry="1.178"/>
		<ellipse fill="#935F5A" cx="171.585" cy="110.393" rx="0.827" ry="1.178"/>
		<ellipse fill="#935F5A" cx="161.099" cy="108.038" rx="0.827" ry="1.178"/>
		<ellipse fill="#935F5A" cx="151.595" cy="95.002" rx="0.827" ry="1.178"/>
		<ellipse fill="#935F5A" cx="169.102" cy="96.18" rx="0.827" ry="1.178"/>
		<ellipse fill="#935F5A" cx="117.478" cy="117.46" rx="0.827" ry="1.178"/>
		<ellipse fill="#935F5A" cx="96.188" cy="117.46" rx="0.827" ry="1.178"/>
		<path fill="#935F5A" d="M79.079,143.216c0,0.648-0.37,1.178-0.827,1.178c-0.458,0-0.828-0.53-0.828-1.178
			c0-0.655,0.37-1.178,0.828-1.178C78.709,142.039,79.079,142.562,79.079,143.216z"/>
		<path fill="#935F5A" d="M89.795,147.376c0,0.655-0.37,1.178-0.826,1.178c-0.458,0-0.828-0.523-0.828-1.178
			c0-0.648,0.37-1.178,0.828-1.178C89.426,146.198,89.795,146.728,89.795,147.376z"/>
		<ellipse fill="#935F5A" cx="77.423" cy="155.543" rx="0.827" ry="1.178"/>
		<path fill="#935F5A" d="M90.622,163.159c0,0.655-0.37,1.178-0.826,1.178c-0.458,0-0.828-0.523-0.828-1.178
			c0-0.647,0.37-1.178,0.828-1.178C90.252,161.981,90.622,162.511,90.622,163.159z"/>
		<path fill="#935F5A" d="M98.67,168.656c0,0.655-0.37,1.178-0.827,1.178c-0.458,0-0.828-0.522-0.828-1.178
			c0-0.648,0.37-1.178,0.828-1.178C98.3,167.479,98.67,168.008,98.67,168.656z"/>
		<path fill="#935F5A" d="M84.457,129.914c0,0.648-0.37,1.178-0.826,1.178c-0.458,0-0.829-0.53-0.829-1.178
			c0-0.655,0.37-1.178,0.829-1.178C84.086,128.736,84.457,129.259,84.457,129.914z"/>
		<path fill="#935F5A" d="M91.45,134.625c0,0.648-0.37,1.178-0.827,1.178c-0.458,0-0.828-0.53-0.828-1.178
			c0-0.655,0.37-1.178,0.828-1.178C91.08,133.448,91.45,133.97,91.45,134.625z"/>
		<ellipse fill="#935F5A" cx="84.458" cy="111.886" rx="0.827" ry="1.178"/>
		<ellipse fill="#935F5A" cx="73.971" cy="109.53" rx="0.827" ry="1.178"/>
		<path fill="#935F5A" d="M82.802,97.67c0,0.655-0.37,1.178-0.826,1.178c-0.458,0-0.828-0.523-0.828-1.178
			c0-0.647,0.37-1.178,0.828-1.178C82.432,96.493,82.802,97.023,82.802,97.67z"/>
	</g>
</g>
</svg>
