<?xml version="1.0" encoding="utf-8"?>
<!-- Generator: Adobe Illustrator 16.2.1, SVG Export Plug-In . SVG Version: 6.00 Build 0)  -->
<!DOCTYPE svg PUBLIC "-//W3C//DTD SVG 1.1//EN" "http://www.w3.org/Graphics/SVG/1.1/DTD/svg11.dtd">
<svg version="1.1" xmlns="http://www.w3.org/2000/svg" xmlns:xlink="http://www.w3.org/1999/xlink" x="0px" y="0px" width="256px"
	 height="256px" viewBox="0 0 256 256" enable-background="new 0 0 256 256" xml:space="preserve">
<g id="圖層_1">
</g>
<g id="圖層_2">
	<g>
		<linearGradient id="SVGID_1_" gradientUnits="userSpaceOnUse" x1="130.2075" y1="205.0249" x2="126.735" y2="33.1604">
			<stop  offset="0" style="stop-color:#A48B78"/>
			<stop  offset="0.2139" style="stop-color:#A1936B"/>
			<stop  offset="0.612" style="stop-color:#98AA47"/>
			<stop  offset="1" style="stop-color:#8FC31F"/>
		</linearGradient>
		<path fill="url(#SVGID_1_)" d="M53.796,74.293C65.639,56.14,92.33,51.098,113.84,53.335c20.439,2.127,58.528-8.55,77.1,3.566
			c19.859,12.958,18.059,24.642,21.239,46.396c2.696,18.47,5.594,28.237-17.099,60.878c-27.798,39.988-58.312,53.656-95.033,29.697
			C44.92,157.904,29.838,111.014,53.796,74.293z"/>
		<path fill="#C9A063" d="M121.772,58.291c0,0-15.108,14.878-5.472,68.932c8.715,48.869,4.794,93.25,33.737,78.485
			c0,0,30.007-20.463,49.124-56.896c17.88-34.075,11.049-88.682-26.176-96.423C152.521,48.132,169.125,45.677,121.772,58.291z"/>
		
			<linearGradient id="SVGID_2_" gradientUnits="userSpaceOnUse" x1="1210.2651" y1="-51.8589" x2="1264.897" y2="-129.3275" gradientTransform="matrix(1.3267 -1.252 0.9761 1.0343 -1387.4233 1765.8013)">
			<stop  offset="0" style="stop-color:#A48B78"/>
			<stop  offset="0.0334" style="stop-color:#A48E75;stop-opacity:0.9959"/>
			<stop  offset="0.4363" style="stop-color:#A0AF55;stop-opacity:0.9459"/>
			<stop  offset="0.7729" style="stop-color:#9EC342;stop-opacity:0.9042"/>
			<stop  offset="1" style="stop-color:#9DCA3B;stop-opacity:0.8761"/>
		</linearGradient>
		<path fill="url(#SVGID_2_)" d="M124.855,56.632c0,0-14.954,19.374-5.316,73.428c8.714,48.869,3.249,88.341,32.193,73.576
			c0,0,34.562-19.361,53.679-55.793c17.88-34.075,11.049-88.682-26.176-96.423C158.771,47.162,172.208,44.018,124.855,56.632z"/>
		<g opacity="0.8">
			<path fill="#93B730" d="M158.449,98.661c1.279-26.984-10.539-44.422-11.054-45.164l-2.263,1.57
				c0.121,0.175,11.986,16.389,10.698,42.523c-15.028,0.425-30.342,3.351-43.02,6.583c-17.077,4.348-32.713,3.619-45.86,1.517
				C64.172,74.5,92.558,53.313,92.845,53.128h-3.618c-0.299,0.193-29.225,19.398-26.784,51.824
				c-11.683-2.095-19.429-4.891-19.592-4.95l-0.953,2.582c0.268,0.1,20.397,7.387,45.175,7.387c1.773,0,3.582-0.062,5.397-0.14
				c-0.705,2.436-1.48,7.088,0.781,12.151c2.815,6.308,9.354,11.065,19.434,14.142c0.135,0.04,0.27,0.059,0.402,0.059
				c0.59,0,1.136-0.382,1.316-0.976c0.222-0.726-0.188-1.495-0.915-1.718c-9.26-2.824-15.218-7.062-17.706-12.587
				c-2.298-5.106,1.321-10.038,1.835-11.436c5.932-0.411,9.813-1.078,15.875-2.624c31.802-8.102,79.434-7.118,99.931,2.07
				l1.127-2.512C202.326,100.917,180.731,98.279,158.449,98.661z"/>
			<path fill="#93B730" d="M112.812,156.637c-34.119,8.696-55.26-2.019-55.47-2.129l-1.277,2.439
				c0.632,0.333,8.964,7.76,27.831,7.76c7.724,0,19.367-2.794,29.597-5.402c14.499-3.694,26.632-5.87,39.194-6.849
				c5.578,17.984-10.782,52.193-10.967,52.521l2.692-1.046c0.766-1.36,18.172-32.641,12.806-51.827
				c17.745-1.108,32.716,0.588,42.922,5.163l1.126-2.511C182.864,146.505,149.798,147.212,112.812,156.637z"/>
		</g>
		<g>
			<path fill="#3E3A39" d="M53.048,82.072c5.613-9.96,13.39-16.94,23.343-22.444c12.788-7.073,24.595-4.846,38.17-2.676
				c17.741,2.834,35.875-2.861,53.589-3.525c22.574-0.844,37.673,18.919,41.892,38.855c3.735,17.65,1.165,34.578-6.429,50.833
				c-9.759,20.893-25.815,41.757-45.78,53.677c-20.695,12.356-42.502,4.494-60.945-7.771c-18.591-12.364-36.203-27.724-46.57-47.802
				C40.423,122.06,43.959,100.69,53.048,82.072c1.939-3.972-3.996-7.462-5.942-3.474c-9.316,19.081-12.788,38.925-5.652,59.324
				c8.104,23.177,28.611,40.33,47.853,54.199c19.593,14.125,41.339,22.993,65.018,13.969c24.03-9.156,41.39-34.233,53.311-55.74
				c9.86-17.788,12.448-36.239,9.672-56.14c-3.191-22.864-15.933-37.793-37.154-46.11c-9.056-3.55-20.483-1.081-29.721,0.124
				c-15.439,2.014-29.515,3.369-44.852-0.188c-23.012-5.343-47.648,11.347-58.474,30.562C44.923,82.471,50.869,85.939,53.048,82.072
				z"/>
		</g>
	</g>
</g>
</svg>
