<?xml version="1.0" encoding="utf-8"?>
<!-- Generator: Adobe Illustrator 16.2.1, SVG Export Plug-In . SVG Version: 6.00 Build 0)  -->
<!DOCTYPE svg PUBLIC "-//W3C//DTD SVG 1.1//EN" "http://www.w3.org/Graphics/SVG/1.1/DTD/svg11.dtd">
<svg version="1.1" xmlns="http://www.w3.org/2000/svg" xmlns:xlink="http://www.w3.org/1999/xlink" x="0px" y="0px" width="256px"
	 height="256px" viewBox="0 0 256 256" enable-background="new 0 0 256 256" xml:space="preserve">
<g id="圖層_1">
</g>
<g id="圖層_2">
	<g>
		<path fill="#898862" d="M127.479,234.085c-6.729,0.081-23.574-6.864-28.27-25.309c-4.891-19.21-4.052-51.675-4.405-81.534
			c-0.305-26.111,2.936-49.819,7.838-68.081c6.086-22.677,10.617-37.05,25.362-37.05c14.507,0,17.917,13.969,24.429,32.954
			c6.514,18.988,8.405,43.767,8.748,73.034c0.345,29.267-1.448,66.759-5.722,85.99C151.184,233.324,134.348,234.005,127.479,234.085
			z"/>
		<path fill="#4D453A" d="M128.005,214.156c-3.603-2.478-15.8-2.04-18.896-17.699c-1.464-7.415-1.652-11.637-2.012-22.434
			c-0.426-12.94-3.038-22.569-2.34-36.362c1.14-22.545,3.057-55.872,6.197-71.351c0.976-4.802,1.893-8.964,2.867-12.502
			c2.924-10.619,6.886-18.253,13.564-15.605c18.986,7.526,12.886,10.274,17.159,26.392c3.284,12.366,4.093,28.566,4.422,46.647
			c0.1,5.487,0.157,11.152,0.226,16.934c0.15,12.853,0.629,34.773,0.006,48.25c-0.582,12.547-1.51,12.643-2.827,20.502
			C143.639,213.233,133.574,217.992,128.005,214.156z"/>
		<g>
			<path fill="#3E3A39" d="M127.479,231.037c-19.631-0.973-26.002-21.952-27.833-38.023c-2.319-20.33-1.603-41.064-1.75-61.491
				c-0.16-21.887,1.297-43.464,6.028-64.886c3.174-14.368,7.829-45.357,28.515-40.864c8.833,1.92,12.167,15.783,14.583,22.799
				c3.067,8.901,5.65,17.716,7.357,26.985c3.852,20.899,3.854,42.671,3.783,63.853c-0.064,19.104-0.938,38.252-3.004,57.248
				c-1.057,9.733-1.859,20.936-8.852,28.421C141.641,230.068,133.879,230.916,127.479,231.037c-3.926,0.075-3.934,6.17,0,6.096
				c15.338-0.29,26.669-6.945,30.918-22.232c6.265-22.529,5.479-48.456,5.824-71.606c0.395-26.509-0.05-53.684-6.098-79.616
				c-3.461-14.846-8.938-40.495-26.552-44.322c-17.317-3.761-24.66,14.808-28.727,27.798c-8.119,25.932-11.19,52.991-11.088,80.089
				c0.1,26.326-1.224,53.543,3.853,79.512c2.962,15.146,15.712,29.576,31.87,30.379C131.41,237.328,131.391,231.233,127.479,231.037
				z"/>
		</g>
		<polygon fill="#898862" points="121.465,35.685 124.167,35.799 123.35,111.322 		"/>
		<polygon fill="#898862" points="109.605,58.966 112.308,59.078 111.494,134.602 		"/>
		<polygon fill="#898862" points="130.87,37.729 133.574,37.842 132.222,147.252 		"/>
		<polygon fill="#898862" points="143.667,56.925 146.372,57.036 145.02,170.563 		"/>
		<polygon fill="#898862" points="134.608,226.472 139.381,224.669 137.082,107.516 		"/>
		<polygon fill="#898862" points="123.206,224.476 125.582,223.935 124.291,149.512 		"/>
		<polygon fill="#898862" points="113.343,217.992 118.125,215.926 116.77,115.999 		"/>
	</g>
</g>
</svg>
