<?xml version="1.0" encoding="utf-8"?>
<!-- Generator: Adobe Illustrator 16.2.1, SVG Export Plug-In . SVG Version: 6.00 Build 0)  -->
<!DOCTYPE svg PUBLIC "-//W3C//DTD SVG 1.1//EN" "http://www.w3.org/Graphics/SVG/1.1/DTD/svg11.dtd">
<svg version="1.1" xmlns="http://www.w3.org/2000/svg" xmlns:xlink="http://www.w3.org/1999/xlink" x="0px" y="0px" width="256px"
	 height="256px" viewBox="0 0 256 256" enable-background="new 0 0 256 256" xml:space="preserve">
<g id="圖層_1">
</g>
<g id="圖層_2">
	<g>
		<path fill="#C67360" d="M199.975,169.909c0,41.729-22.251,64.233-71.595,64.233c-49.345,0-72.234-29.806-72.234-70.867
			c0-20.778,2.442-48.346,12.915-73.784c8.564-20.802,35.329-68.105,60.767-68.105c22.354,0,46.084,44.596,55.953,67.758
			C200.159,122.887,199.975,144.827,199.975,169.909z"/>
		<linearGradient id="SVGID_1_" gradientUnits="userSpaceOnUse" x1="129.4175" y1="27.1489" x2="129.7376" y2="84.9028">
			<stop  offset="0.0023" style="stop-color:#BB5748"/>
			<stop  offset="0.0405" style="stop-color:#BC5A4A;stop-opacity:0.9616"/>
			<stop  offset="0.2746" style="stop-color:#C26954;stop-opacity:0.7262"/>
			<stop  offset="0.5543" style="stop-color:#C5715A;stop-opacity:0.4452"/>
			<stop  offset="0.9972" style="stop-color:#C6745C;stop-opacity:0"/>
		</linearGradient>
		<path fill="url(#SVGID_1_)" d="M149.748,36.547c0,8.561-9.077,15.509-20.275,15.509c-11.201,0-20.281-6.948-20.281-15.509
			c0-8.563,9.08-15.506,20.281-15.506C140.67,21.041,149.748,27.983,149.748,36.547z"/>
		
			<radialGradient id="SVGID_2_" cx="654.8184" cy="208.8657" r="54.1378" gradientTransform="matrix(1.3461 0 0 2.7247 -754.6829 -435.7066)" gradientUnits="userSpaceOnUse">
			<stop  offset="0.0023" style="stop-color:#C65748"/>
			<stop  offset="0.9566" style="stop-color:#C6735B;stop-opacity:0.0408"/>
			<stop  offset="0.9972" style="stop-color:#C6745C;stop-opacity:0"/>
		</radialGradient>
		<path fill="url(#SVGID_2_)" d="M177.395,141.307c0.002,18.883-2.895,38.76-9.715,52.766c-6.838,14.042-21.833,19.18-39.619,19.18
			c-16.273-0.001-28.592-6.628-38.129-18.509c-10.643-13.26-11.206-26.012-11.206-47.271c0.002-16.148,3.75-38.153,8.736-50.998
			c9.474-24.409,21.587-45.613,41.111-45.615c18.256,0.002,29.806,17.256,39.571,39.056
			C174.32,103.708,177.395,123.163,177.395,141.307z"/>
		<path fill="#A25C4D" d="M128.638,23.625c0,0-7.322,173.264-1.7,207.952h3.276l2.054-206.621
			C132.176,23.29,128.451,21.83,128.638,23.625z"/>
		<path fill="#844A44" d="M145.359,228.641c0,2.979-10.911,5.502-17.298,5.502c-6.387,0-17.969-2.523-17.969-5.502
			c0-2.98,11.582-7.708,17.969-7.708C134.448,220.932,145.359,225.66,145.359,228.641z"/>
		<g>
			<path fill="#3E3A39" d="M196.121,169.909c-0.335,19.805-5.463,38.425-22.637,49.984c-18.957,12.756-47.773,12.628-69.07,7.512
				c-52.321-12.571-48.082-75.561-38.408-116.252c4.872-20.495,15.049-39.406,26.872-56.676c6.685-9.764,14.75-18.925,24.751-25.363
				c11.707-7.537,21.904-2.007,30.858,6.536C183.655,69.204,196.112,123.462,196.121,169.909c0.002,4.971,7.71,4.971,7.708,0
				c-0.005-30.305-3.783-57.522-15.971-85.588c-9.891-22.779-23.547-49.567-45.312-63.106c-18.309-11.39-37.171,5.842-48.433,19
				c-17.978,21.002-30.415,47.325-36.772,74.07c-11.393,47.923-7.572,107.917,48.807,121.464
				c23.623,5.674,53.351,2.83,73.791-10.925c18.143-12.212,23.541-34.314,23.891-54.914
				C203.914,164.937,196.206,164.943,196.121,169.909z"/>
		</g>
	</g>
</g>
</svg>
