<?xml version="1.0" encoding="utf-8"?>
<!-- Generator: Adobe Illustrator 16.2.1, SVG Export Plug-In . SVG Version: 6.00 Build 0)  -->
<!DOCTYPE svg PUBLIC "-//W3C//DTD SVG 1.1//EN" "http://www.w3.org/Graphics/SVG/1.1/DTD/svg11.dtd">
<svg version="1.1" xmlns="http://www.w3.org/2000/svg" xmlns:xlink="http://www.w3.org/1999/xlink" x="0px" y="0px" width="256px"
	 height="256px" viewBox="0 0 256 256" enable-background="new 0 0 256 256" xml:space="preserve">
<g id="圖層_1">
</g>
<g id="圖層_2">
	<g>
		<path fill="#F7F8F8" d="M225.436,109.496c0,10.599-9.391,31.23-14.934,40.23c-4.37,7.099-25.96,21.256-33.052,26.809
			c-16.649,13.03-24.211,25.402-49.953,25.402c-25.307,0-41.233-18.407-57.819-31.047c-7.953-6.063-21.434-14.644-26.043-22.593
			c-5.006-8.628-14.077-23.82-14.077-33.863c0-18.238,15.46-29.196,30.475-41.642c7.498-6.213,16.454-11.384,26.454-15.207
			c12.339-4.714,26.269-3.134,41.011-3.134c16.075,0,31.184-1.079,44.317,4.461c10.052,4.241,18.948,9.886,26.236,16.578
			C211.224,87.59,225.436,92.546,225.436,109.496z"/>
		<g opacity="0.7">
			<path fill="#F2F2F2" d="M218.525,120.783c0,9.104-8.672,26.823-13.789,34.552c-4.031,6.1-23.963,18.256-30.512,23.022
				c-15.369,11.189-22.351,21.815-46.114,21.815c-23.362,0-38.065-15.812-53.377-26.662c-7.34-5.205-19.787-12.576-24.041-19.404
				c-4.622-7.409-12.995-20.453-12.995-29.08c0-15.662,14.272-25.074,28.132-35.762c6.922-5.335,15.19-9.778,24.421-13.057
				c11.391-4.05,24.251-2.692,37.861-2.692c14.839,0,28.787-0.932,40.913,3.829c9.277,3.645,17.491,8.488,24.221,14.236
				C205.406,101.971,218.525,106.227,218.525,120.783z"/>
		</g>
		<g>
			<g>
				<g opacity="0.9">
					<path fill="#EFEFEF" d="M127.398,124.601c-0.216,0-0.394-0.177-0.394-0.394c0-11.355,0.199-22.789,0.391-33.849
						c0.195-11.266,0.396-22.913,0.396-34.693c0-0.217,0.177-0.393,0.394-0.393s0.394,0.176,0.394,0.393
						c0,11.788-0.201,23.439-0.396,34.707c-0.192,11.055-0.391,22.488-0.391,33.835
						C127.791,124.424,127.615,124.601,127.398,124.601z"/>
				</g>
				<g opacity="0.9">
					<path fill="#EFEFEF" d="M129.418,124.521c-0.007,0-0.015,0-0.024,0c-0.216-0.015-0.381-0.201-0.369-0.418
						c0.697-11.337,1.596-22.741,2.466-33.77c0.887-11.234,1.802-22.849,2.524-34.609c0.014-0.215,0.178-0.352,0.418-0.369
						c0.216,0.014,0.381,0.201,0.369,0.418c-0.724,11.766-1.64,23.385-2.526,34.621c-0.87,11.026-1.769,22.427-2.465,33.757
						C129.798,124.358,129.625,124.521,129.418,124.521z"/>
				</g>
				<g opacity="0.9">
					<path fill="#EFEFEF" d="M132.011,125.639c-0.017,0-0.034-0.002-0.053-0.003c-0.215-0.029-0.365-0.227-0.338-0.443
						c1.493-11.268,3.193-22.59,4.837-33.54c1.673-11.146,3.403-22.67,4.951-34.352c0.027-0.215,0.199-0.362,0.442-0.338
						c0.215,0.029,0.365,0.226,0.338,0.442c-1.548,11.688-3.279,23.216-4.954,34.364c-1.643,10.946-3.342,22.265-4.834,33.528
						C132.375,125.494,132.206,125.639,132.011,125.639z"/>
				</g>
				<g opacity="0.9">
					<path fill="#EFEFEF" d="M135.074,125.344c-0.023,0-0.048-0.002-0.072-0.006c-0.213-0.042-0.354-0.246-0.315-0.46
						c2.101-11.172,4.41-22.388,6.643-33.236c2.275-11.05,4.628-22.479,6.805-34.069c0.042-0.212,0.231-0.354,0.459-0.315
						c0.214,0.042,0.355,0.246,0.315,0.459c-2.18,11.599-4.532,23.029-6.81,34.085c-2.232,10.844-4.54,22.057-6.638,33.221
						C135.424,125.211,135.26,125.344,135.074,125.344z"/>
				</g>
				<g opacity="0.9">
					<path fill="#EFEFEF" d="M136.875,126.747c-0.035,0-0.072-0.004-0.107-0.015c-0.209-0.06-0.331-0.276-0.271-0.485
						c3.124-10.945,6.737-22.63,10.233-33.931c3.56-11.515,7.242-23.42,10.485-34.779c0.058-0.209,0.278-0.337,0.485-0.271
						c0.209,0.06,0.33,0.276,0.271,0.485c-3.244,11.367-6.928,23.279-10.49,34.798c-3.494,11.296-7.106,22.976-10.228,33.912
						C137.204,126.636,137.047,126.747,136.875,126.747z"/>
				</g>
				<g opacity="0.9">
					<path fill="#EFEFEF" d="M138.939,127.753c-0.045,0-0.093-0.008-0.14-0.026c-0.204-0.076-0.305-0.304-0.227-0.507
						c4.076-10.654,8.96-22.222,13.685-33.407c4.81-11.389,9.783-23.163,14.008-34.206c0.077-0.203,0.303-0.304,0.507-0.228
						c0.204,0.077,0.306,0.304,0.228,0.507c-4.229,11.056-9.206,22.838-14.017,34.232c-4.723,11.18-9.604,22.74-13.676,33.38
						C139.247,127.656,139.098,127.753,138.939,127.753z"/>
				</g>
				<g opacity="0.9">
					<path fill="#EFEFEF" d="M143.578,128.822c-0.052,0-0.104-0.011-0.155-0.032c-0.2-0.086-0.292-0.318-0.206-0.517
						c4.533-10.503,10.849-21.371,16.956-31.88c6.208-10.678,12.625-21.72,17.308-32.568c0.084-0.201,0.315-0.295,0.517-0.206
						c0.2,0.086,0.292,0.318,0.206,0.516c-4.702,10.893-11.132,21.955-17.35,32.653c-6.097,10.489-12.401,21.336-16.915,31.795
						C143.875,128.732,143.73,128.822,143.578,128.822z"/>
				</g>
			</g>
			<g>
				<g opacity="0.9">
					<path fill="#EFEFEF" d="M144.889,127.52c-0.078,0-0.158-0.023-0.228-0.072c-0.176-0.126-0.219-0.372-0.093-0.549
						c6.786-9.575,13.788-19.123,20.558-28.354c6.908-9.421,14.049-19.16,21.1-29.108c0.126-0.177,0.37-0.22,0.549-0.094
						c0.176,0.126,0.219,0.372,0.094,0.549c-7.056,9.955-14.199,19.696-21.108,29.117c-6.768,9.231-13.767,18.777-20.55,28.346
						C145.133,127.461,145.012,127.52,144.889,127.52z"/>
				</g>
				<g opacity="0.9">
					<path fill="#EFEFEF" d="M146.642,128.423c-0.086,0-0.174-0.028-0.246-0.086c-0.169-0.136-0.197-0.383-0.062-0.554
						c7.37-9.232,14.951-18.427,22.285-27.316c7.464-9.052,15.182-18.41,22.824-27.984c0.135-0.166,0.386-0.196,0.553-0.061
						c0.17,0.135,0.197,0.383,0.062,0.553c-7.645,9.578-15.366,18.939-22.832,27.992c-7.33,8.887-14.911,18.078-22.277,27.308
						C146.873,128.372,146.757,128.423,146.642,128.423z"/>
				</g>
				<g opacity="0.9">
					<path fill="#EFEFEF" d="M148.162,130.617c-0.096,0-0.189-0.034-0.265-0.103c-0.161-0.147-0.174-0.396-0.026-0.556
						c8.013-8.809,16.233-17.56,24.184-26.024c8.063-8.586,16.403-17.463,24.682-26.559c0.146-0.16,0.396-0.172,0.555-0.026
						c0.161,0.146,0.172,0.395,0.026,0.555c-8.281,9.102-16.623,17.981-24.689,26.57c-7.948,8.461-16.167,17.211-24.176,26.013
						C148.375,130.574,148.268,130.617,148.162,130.617z"/>
				</g>
				<g opacity="0.9">
					<path fill="#EFEFEF" d="M150.924,131.84c-0.101,0-0.201-0.039-0.278-0.115c-0.154-0.155-0.154-0.404,0-0.557
						c8.446-8.41,17.098-16.758,25.463-24.832c8.535-8.237,17.36-16.753,26.137-25.493c0.155-0.155,0.404-0.153,0.556,0
						c0.154,0.154,0.154,0.404,0,0.556c-8.78,8.746-17.609,17.264-26.147,25.503c-8.363,8.071-17.012,16.417-25.453,24.822
						C151.125,131.801,151.024,131.84,150.924,131.84z"/>
				</g>
				<g opacity="0.9">
					<path fill="#EFEFEF" d="M151.602,133.893c-0.112,0-0.223-0.048-0.301-0.14c-0.14-0.166-0.119-0.415,0.047-0.555
						c9.163-7.718,19.181-15.821,28.869-23.66c9.911-8.02,20.161-16.311,29.708-24.355c0.166-0.14,0.414-0.118,0.555,0.048
						c0.14,0.166,0.118,0.415-0.048,0.554c-9.554,8.048-19.807,16.344-29.721,24.366c-9.685,7.834-19.699,15.936-28.856,23.648
						C151.782,133.862,151.691,133.893,151.602,133.893z"/>
				</g>
				<g opacity="0.9">
					<path fill="#EFEFEF" d="M152.745,135.732c-0.123,0-0.243-0.056-0.32-0.164c-0.126-0.177-0.086-0.422,0.09-0.549
						c9.809-7.027,20.849-14.437,31.523-21.601c10.87-7.295,22.111-14.838,32.284-22.126c0.174-0.125,0.421-0.088,0.549,0.091
						c0.125,0.177,0.086,0.422-0.091,0.548c-10.183,7.295-21.428,14.842-32.304,22.141c-10.669,7.161-21.705,14.567-31.503,21.587
						C152.905,135.708,152.825,135.732,152.745,135.732z"/>
				</g>
				<g opacity="0.9">
					<path fill="#EFEFEF" d="M156.018,138.87c-0.128,0-0.252-0.061-0.329-0.176c-0.12-0.182-0.069-0.426,0.113-0.546
						c10.104-6.681,21.933-12.811,33.372-18.739c11.626-6.025,23.649-12.255,34.092-19.159c0.179-0.115,0.424-0.072,0.546,0.112
						c0.119,0.181,0.069,0.425-0.112,0.545c-10.479,6.924-22.519,13.166-34.163,19.199c-11.422,5.92-23.231,12.04-33.301,18.698
						C156.168,138.849,156.093,138.87,156.018,138.87z"/>
				</g>
			</g>
			<g>
				<g opacity="0.9">
					<path fill="#EFEFEF" d="M152.219,145.787c-0.152,0-0.296-0.089-0.361-0.237c-0.086-0.199,0.006-0.431,0.206-0.517
						c11.382-4.909,22.93-9.694,34.098-14.322c11.425-4.734,23.241-9.631,35.102-14.748c0.198-0.086,0.428,0.004,0.516,0.207
						c0.086,0.197-0.006,0.43-0.206,0.516c-11.866,5.12-23.683,10.016-35.111,14.75c-11.166,4.628-22.712,9.413-34.089,14.319
						C152.324,145.776,152.271,145.787,152.219,145.787z"/>
				</g>
				<g opacity="0.9">
					<path fill="#EFEFEF" d="M153.177,147.386c-0.16,0-0.311-0.099-0.369-0.257c-0.076-0.203,0.027-0.431,0.232-0.506
						c11.681-4.346,23.518-8.558,34.966-12.63c11.678-4.157,23.753-8.453,35.892-12.97c0.195-0.074,0.43,0.027,0.505,0.231
						c0.075,0.203-0.027,0.431-0.232,0.506c-12.142,4.519-24.221,8.815-35.901,12.972c-11.444,4.073-23.28,8.283-34.957,12.628
						C153.269,147.378,153.223,147.386,153.177,147.386z"/>
				</g>
				<g opacity="0.9">
					<path fill="#EFEFEF" d="M153.177,149.967c-0.169,0-0.324-0.109-0.376-0.278c-0.063-0.207,0.053-0.427,0.261-0.491
						c11.987-3.683,24.117-7.222,35.85-10.645c11.904-3.473,24.213-7.065,36.6-10.869c0.209-0.054,0.428,0.054,0.492,0.262
						c0.063,0.207-0.054,0.427-0.261,0.491c-12.391,3.806-24.703,7.398-36.611,10.87c-11.728,3.424-23.856,6.962-35.839,10.644
						C153.253,149.96,153.215,149.967,153.177,149.967z"/>
				</g>
				<g opacity="0.9">
					<path fill="#EFEFEF" d="M154.802,152.314c-0.175,0-0.334-0.117-0.381-0.295c-0.054-0.21,0.072-0.425,0.283-0.479
						c12.132-3.144,21.953-5.354,31.453-7.493c9.677-2.177,19.682-4.43,32.271-7.693c0.21-0.046,0.425,0.073,0.479,0.282
						c0.054,0.211-0.072,0.425-0.283,0.479c-12.599,3.268-22.612,5.52-32.295,7.7c-9.492,2.135-19.309,4.345-31.428,7.486
						C154.868,152.31,154.834,152.314,154.802,152.314z"/>
				</g>
				<g opacity="0.9">
					<path fill="#EFEFEF" d="M154.169,154.379c-0.187,0-0.353-0.133-0.387-0.323c-0.038-0.214,0.104-0.418,0.318-0.457
						c12.33-2.213,21.351-3.616,30.071-4.975c8.907-1.387,18.118-2.819,30.954-5.126c0.203-0.049,0.418,0.104,0.456,0.318
						c0.039,0.213-0.104,0.418-0.318,0.456c-12.845,2.308-22.059,3.743-30.97,5.129c-8.718,1.357-17.732,2.759-30.055,4.972
						C154.215,154.378,154.192,154.379,154.169,154.379z"/>
				</g>
				<g opacity="0.9">
					<path fill="#EFEFEF" d="M154.057,156.484c-0.2,0-0.37-0.151-0.392-0.352c-0.021-0.218,0.134-0.41,0.35-0.434
						c12.467-1.321,19.968-1.814,27.223-2.291c7.384-0.485,15.021-0.986,27.95-2.358c0.213-0.012,0.412,0.137,0.433,0.351
						c0.021,0.217-0.134,0.41-0.35,0.434c-12.944,1.371-20.588,1.874-27.982,2.36c-7.246,0.476-14.739,0.969-27.19,2.288
						C154.085,156.484,154.07,156.484,154.057,156.484z"/>
				</g>
				<g opacity="0.9">
					<path fill="#EFEFEF" d="M154.99,160.7c-0.205,0-0.378-0.158-0.392-0.366c-0.015-0.216,0.147-0.403,0.364-0.418
						c12.447-0.885,18.379-1.329,24.327-1.778c6.062-0.455,12.138-0.913,25.138-1.833c0.215-0.06,0.404,0.146,0.419,0.364
						c0.016,0.217-0.147,0.404-0.364,0.42c-12.999,0.922-19.075,1.377-25.135,1.834c-5.947,0.446-11.881,0.895-24.33,1.775
						C155.008,160.7,154.999,160.7,154.99,160.7z"/>
				</g>
			</g>
		</g>
		<g>
			<g>
				<g opacity="0.9">
					<path fill="#EFEFEF" d="M125.763,124.521c-0.206,0-0.379-0.162-0.394-0.369c-0.696-11.341-1.596-22.753-2.466-33.788
						c-0.885-11.227-1.8-22.835-2.524-34.59c-0.012-0.217,0.152-0.404,0.369-0.418c0.241,0.009,0.404,0.153,0.418,0.369
						c0.723,11.749,1.637,23.354,2.521,34.576c0.871,11.04,1.771,22.455,2.469,33.802c0.013,0.217-0.152,0.403-0.369,0.418
						C125.779,124.521,125.771,124.521,125.763,124.521z"/>
				</g>
				<g opacity="0.9">
					<path fill="#EFEFEF" d="M123.173,125.639c-0.195,0-0.364-0.145-0.391-0.342c-1.493-11.272-3.194-22.602-4.838-33.56
						c-1.672-11.138-3.402-22.657-4.949-34.332c-0.028-0.217,0.123-0.414,0.338-0.442c0.228-0.024,0.413,0.123,0.443,0.338
						c1.545,11.671,3.273,23.185,4.945,34.32c1.646,10.961,3.347,22.294,4.841,33.572c0.028,0.217-0.123,0.414-0.338,0.443
						C123.207,125.637,123.189,125.639,123.173,125.639z"/>
				</g>
				<g opacity="0.9">
					<path fill="#EFEFEF" d="M120.109,125.344c-0.186,0-0.35-0.133-0.387-0.321c-2.098-11.175-4.409-22.398-6.644-33.253
						c-2.274-11.044-4.626-22.464-6.804-34.052c-0.039-0.213,0.102-0.418,0.315-0.459c0.218-0.042,0.418,0.102,0.459,0.315
						c2.176,11.581,4.527,22.998,6.799,34.039c2.235,10.857,4.548,22.084,6.648,33.267c0.041,0.214-0.101,0.418-0.314,0.46
						C120.157,125.342,120.132,125.344,120.109,125.344z"/>
				</g>
				<g opacity="0.9">
					<path fill="#EFEFEF" d="M118.308,126.747c-0.172,0-0.328-0.111-0.377-0.285c-3.121-10.927-6.729-22.6-10.221-33.888
						c-3.564-11.527-7.25-23.446-10.497-34.822c-0.06-0.209,0.062-0.426,0.271-0.485c0.208-0.059,0.427,0.062,0.486,0.271
						c3.243,11.367,6.929,23.282,10.492,34.806c3.492,11.291,7.103,22.968,10.225,33.904c0.06,0.209-0.062,0.426-0.271,0.485
						C118.381,126.743,118.344,126.747,118.308,126.747z"/>
				</g>
				<g opacity="0.9">
					<path fill="#EFEFEF" d="M116.243,127.753c-0.158,0-0.307-0.097-0.367-0.254c-4.07-10.635-8.95-22.19-13.67-33.365
						c-4.813-11.399-9.792-23.187-14.023-34.248c-0.078-0.203,0.023-0.43,0.228-0.507c0.201-0.083,0.428,0.025,0.507,0.228
						c4.227,11.047,9.204,22.829,14.014,34.222c4.722,11.181,9.604,22.742,13.679,33.392c0.079,0.203-0.023,0.431-0.226,0.507
						C116.337,127.745,116.29,127.753,116.243,127.753z"/>
				</g>
				<g opacity="0.9">
					<path fill="#EFEFEF" d="M111.603,128.822c-0.152,0-0.296-0.09-0.361-0.238c-4.513-10.461-10.819-21.311-16.917-31.803
						c-6.217-10.695-12.646-21.756-17.345-32.645c-0.086-0.198,0.006-0.43,0.206-0.516c0.201-0.086,0.429,0.006,0.516,0.206
						C82.383,74.67,88.8,85.709,95.005,96.387c6.111,10.512,12.429,21.381,16.959,31.887c0.086,0.198-0.006,0.431-0.206,0.517
						C111.708,128.812,111.656,128.822,111.603,128.822z"/>
				</g>
			</g>
			<g>
				<g opacity="0.9">
					<path fill="#EFEFEF" d="M110.294,127.52c-0.123,0-0.244-0.059-0.321-0.166c-6.784-9.569-13.782-19.115-20.55-28.346
						c-6.909-9.421-14.052-19.163-21.107-29.117c-0.126-0.177-0.083-0.423,0.094-0.549c0.178-0.126,0.423-0.083,0.548,0.094
						c7.051,9.948,14.192,19.688,21.1,29.108c6.77,9.231,13.771,18.779,20.558,28.354c0.126,0.177,0.083,0.423-0.094,0.549
						C110.453,127.496,110.373,127.52,110.294,127.52z"/>
				</g>
				<g opacity="0.9">
					<path fill="#EFEFEF" d="M108.542,128.423c-0.115,0-0.23-0.051-0.307-0.147c-7.365-9.229-14.947-18.421-22.277-27.308
						c-7.467-9.053-15.188-18.415-22.833-27.992c-0.135-0.17-0.107-0.418,0.062-0.553c0.171-0.135,0.42-0.104,0.553,0.061
						c7.643,9.574,15.36,18.932,22.826,27.984c7.332,8.889,14.914,18.083,22.284,27.316c0.135,0.171,0.108,0.418-0.062,0.554
						C108.716,128.395,108.628,128.423,108.542,128.423z"/>
				</g>
				<g opacity="0.9">
					<path fill="#EFEFEF" d="M107.022,130.617c-0.106,0-0.214-0.043-0.291-0.13c-8.01-8.802-16.228-17.552-24.176-26.013
						c-8.067-8.589-16.408-17.468-24.689-26.57c-0.146-0.16-0.135-0.409,0.026-0.555c0.16-0.147,0.408-0.137,0.554,0.026
						c8.278,9.096,16.618,17.973,24.682,26.559c7.951,8.464,16.171,17.216,24.184,26.024c0.147,0.16,0.135,0.408-0.026,0.556
						C107.211,130.583,107.117,130.617,107.022,130.617z"/>
				</g>
				<g opacity="0.9">
					<path fill="#EFEFEF" d="M104.259,131.84c-0.1,0-0.201-0.039-0.278-0.115c-8.441-8.404-17.09-16.75-25.453-24.822
						c-8.539-8.24-17.366-16.758-26.147-25.503c-0.154-0.152-0.154-0.401,0-0.556c0.154-0.153,0.402-0.155,0.556,0
						c8.776,8.739,17.602,17.256,26.136,25.493c8.366,8.074,17.018,16.421,25.464,24.832c0.154,0.152,0.154,0.401,0,0.557
						C104.46,131.801,104.361,131.84,104.259,131.84z"/>
				</g>
				<g opacity="0.9">
					<path fill="#EFEFEF" d="M103.583,133.893c-0.089,0-0.18-0.03-0.253-0.093c-9.154-7.708-19.163-15.807-28.842-23.636
						c-9.921-8.026-20.178-16.325-29.736-24.378c-0.166-0.139-0.188-0.388-0.047-0.554c0.141-0.165,0.388-0.186,0.554-0.048
						c9.552,8.048,19.807,16.345,29.724,24.367c9.683,7.834,19.694,15.935,28.854,23.647c0.166,0.14,0.188,0.389,0.047,0.555
						C103.806,133.845,103.695,133.893,103.583,133.893z"/>
				</g>
				<g opacity="0.9">
					<path fill="#EFEFEF" d="M102.439,135.732c-0.08,0-0.16-0.024-0.229-0.073c-9.798-7.019-20.828-14.421-31.496-21.581
						c-10.879-7.299-22.127-14.85-32.312-22.147c-0.177-0.125-0.217-0.371-0.091-0.548c0.126-0.18,0.372-0.217,0.549-0.091
						c10.176,7.289,21.419,14.836,32.293,22.133c10.672,7.164,21.708,14.569,31.516,21.594c0.176,0.127,0.217,0.372,0.09,0.549
						C102.683,135.677,102.562,135.732,102.439,135.732z"/>
				</g>
				<g opacity="0.9">
					<path fill="#EFEFEF" d="M99.164,138.87c-0.075,0-0.15-0.021-0.216-0.064c-10.07-6.658-21.88-12.779-33.303-18.698
						c-11.643-6.035-23.682-12.275-34.159-19.199c-0.182-0.121-0.232-0.364-0.112-0.545c0.123-0.184,0.369-0.228,0.545-0.112
						c10.443,6.903,22.464,13.133,34.089,19.159c11.441,5.929,23.27,12.059,33.374,18.739c0.181,0.12,0.232,0.364,0.112,0.546
						C99.416,138.81,99.292,138.87,99.164,138.87z"/>
				</g>
			</g>
			<g>
				<g opacity="0.9">
					<path fill="#EFEFEF" d="M102.962,145.787c-0.052,0-0.104-0.011-0.155-0.031c-11.382-4.908-22.931-9.695-34.102-14.325
						c-11.423-4.733-23.236-9.629-35.097-14.745c-0.2-0.086-0.292-0.319-0.206-0.516c0.086-0.202,0.317-0.295,0.517-0.207
						c11.856,5.115,23.666,10.009,35.088,14.741c11.171,4.631,22.724,9.419,34.111,14.329c0.2,0.086,0.292,0.317,0.206,0.517
						C103.259,145.698,103.114,145.787,102.962,145.787z"/>
				</g>
				<g opacity="0.9">
					<path fill="#EFEFEF" d="M102.007,147.386c-0.046,0-0.092-0.008-0.137-0.025c-11.677-4.345-23.512-8.555-34.958-12.628
						c-11.68-4.156-23.758-8.453-35.901-12.972c-0.204-0.075-0.307-0.303-0.232-0.506c0.076-0.204,0.303-0.306,0.505-0.231
						c12.138,4.517,24.213,8.812,35.892,12.97c11.448,4.072,23.285,8.284,34.967,12.63c0.204,0.075,0.307,0.303,0.232,0.506
						C102.317,147.287,102.167,147.386,102.007,147.386z"/>
				</g>
				<g opacity="0.9">
					<path fill="#EFEFEF" d="M102.007,149.967c-0.039,0-0.077-0.007-0.115-0.017c-11.983-3.682-24.111-7.22-35.839-10.644
						c-11.908-3.472-24.219-7.064-36.611-10.87c-0.207-0.064-0.324-0.284-0.261-0.491c0.062-0.208,0.287-0.315,0.491-0.262
						c12.387,3.804,24.695,7.396,36.6,10.869c11.732,3.423,23.863,6.962,35.851,10.645c0.207,0.064,0.324,0.284,0.261,0.491
						C102.331,149.857,102.175,149.967,102.007,149.967z"/>
				</g>
				<g opacity="0.9">
					<path fill="#EFEFEF" d="M100.381,152.314c-0.032,0-0.066-0.005-0.098-0.013c-12.12-3.142-21.936-5.352-31.428-7.486
						c-9.683-2.181-19.695-4.433-32.294-7.7c-0.211-0.055-0.337-0.269-0.283-0.479c0.056-0.209,0.273-0.328,0.479-0.282
						c12.588,3.264,22.593,5.517,32.27,7.693c9.5,2.139,19.321,4.35,31.453,7.493c0.21,0.055,0.336,0.27,0.282,0.479
						C100.716,152.197,100.557,152.314,100.381,152.314z"/>
				</g>
				<g opacity="0.9">
					<path fill="#EFEFEF" d="M101.014,154.379c-0.022,0-0.045-0.001-0.069-0.006c-12.322-2.213-21.337-3.614-30.054-4.972
						c-8.911-1.386-18.125-2.821-30.97-5.129c-0.213-0.038-0.356-0.243-0.318-0.456c0.037-0.214,0.244-0.367,0.456-0.318
						c12.835,2.307,22.046,3.739,30.953,5.126c8.721,1.358,17.741,2.762,30.071,4.975c0.214,0.039,0.356,0.243,0.318,0.457
						C101.368,154.246,101.202,154.379,101.014,154.379z"/>
				</g>
				<g opacity="0.9">
					<path fill="#EFEFEF" d="M101.125,156.484c-0.014,0-0.027,0-0.042-0.002c-12.449-1.319-19.943-1.812-27.19-2.288
						c-7.392-0.486-15.035-0.989-27.98-2.36c-0.217-0.023-0.372-0.217-0.35-0.434c0.023-0.216,0.217-0.371,0.433-0.351
						c12.93,1.371,20.564,1.873,27.95,2.358c7.253,0.477,14.754,0.97,27.221,2.291c0.217,0.023,0.372,0.216,0.351,0.434
						C101.495,156.333,101.325,156.484,101.125,156.484z"/>
				</g>
				<g opacity="0.9">
					<path fill="#EFEFEF" d="M100.194,160.7c-0.01,0-0.019,0-0.028-0.002c-12.448-0.881-18.382-1.329-24.33-1.775
						c-6.06-0.457-12.136-0.912-25.135-1.834c-0.217-0.016-0.379-0.203-0.364-0.42c0.014-0.219,0.188-0.416,0.419-0.364
						c13,0.92,19.077,1.378,25.138,1.833c5.948,0.449,11.88,0.894,24.327,1.778c0.217,0.015,0.379,0.202,0.364,0.418
						C100.571,160.542,100.398,160.7,100.194,160.7z"/>
				</g>
			</g>
		</g>
		<g opacity="0.8">
			<path fill="#F2F2F2" d="M215.194,137.533c0,6.951-16.118,21.637-20.562,27.533c-3.497,4.652-20.802,13.933-26.488,17.566
				c-13.341,8.543-19.404,16.649-40.034,16.649c-20.283,0-33.047-12.064-46.342-20.345c-6.372-3.973-17.177-9.596-20.871-14.808
				c-4.012-5.654-11.282-15.61-11.282-22.189c0-11.95,12.391-19.135,24.423-27.288c6.011-4.071,8.469-10.715,16.484-13.216
				c9.889-3.091,25.158-5.292,36.973-5.292c12.883,0,28.414,1.656,38.94,5.292c8.054,2.78,20.117,6.751,25.96,11.139
				C202.954,120.503,215.194,126.428,215.194,137.533z"/>
		</g>
		<g>
			<path fill="#3E3A39" d="M223.076,109.496c-1.174,16.456-9.682,35.846-22.244,46.663c-11.112,9.571-23.679,17.235-34.771,26.88
				c-18.968,16.489-40.628,21.608-63.882,9.575c-16.947-8.776-33.883-24.748-48.707-36.941
				c-17.926-14.747-28.068-43.438-12.639-62.562c14.142-17.527,37.775-33.595,60.164-36.229c20.017-2.354,46.268-2.336,65.739,2.695
				c12.616,3.26,23.7,12.415,33.253,20.72C210.126,89.114,221.881,94.295,223.076,109.496c0.237,3.015,4.959,3.036,4.72,0
				c-1.629-20.729-24.838-34.613-40.638-45.251c-23.772-16.007-53.814-12.62-81.068-12.353
				c-26.109,0.252-47.591,17.396-65.577,34.65c-18.216,17.472-13.7,36.34-2.711,56.351c10.743,19.568,33.23,33.498,50.913,46.427
				c17.456,12.759,40.977,20.982,61.839,10.454c18.228-9.193,34.569-25.423,50.739-37.945
				c15.242-11.807,25.139-33.215,26.503-52.332C228.014,106.458,223.291,106.479,223.076,109.496z"/>
		</g>
		<g>
			<path fill="#EDE4CE" d="M129.53,112.148c17.003-0.19,35.697,10.067,35.4,24.39c-0.163,7.882-11.804,24.5-15.768,37.85
				c-4.78,16.094-7.885,23.984-19.59,23.321c-10.896-0.621-12.433-6.933-18.081-21.642c-3.184-8.287-15.142-20.326-17.521-36.164
				C91.05,120.482,117.446,112.284,129.53,112.148z"/>
			<g>
				<path fill="#DBD3C1" d="M151.344,147.051c0,8.831-14.011,25.249-15.179,29.896c-2.845,11.354-4.634,19.306-6.714,17.204
					c-2.131-2.151-3.29-11.695-6.12-18.722c-3.027-7.517-13.469-18.695-15.135-24.801c-2.408-8.832,2.19-15.983,10.295-15.983
					c5.694,0,8.677,9.352,10.302,9.044c2.586-0.491,2.839-8.911,10.723-9.044C147.761,134.507,151.344,137.165,151.344,147.051z"/>
				<path fill="#EAC492" d="M130.119,195.275c-0.439,0-0.853-0.193-1.228-0.572c-1.328-1.34-2.195-4.734-3.292-9.028
					c-0.82-3.214-1.751-6.858-2.997-9.952c-1.425-3.537-4.587-7.983-7.646-12.284c-3.403-4.786-6.619-9.306-7.52-12.604
					c-1.313-4.82-0.653-9.434,1.812-12.663c2.125-2.781,5.407-4.313,9.242-4.313c4.056,0,6.788,4.115,8.597,6.836
					c0.584,0.882,1.386,2.088,1.713,2.229c0.389-0.11,0.979-1.21,1.603-2.374c1.407-2.628,3.535-6.597,9.099-6.69l0.605-0.005
					c8.764,0,12.023,3.577,12.023,13.197c0,5.863-5.683,14.562-10.25,21.55c-2.448,3.746-4.562,6.98-4.952,8.538l-0.578,2.31
					C133.543,190.706,132.318,195.275,130.119,195.275z M118.491,135.432c-3.332,0-6.17,1.312-7.991,3.695
					c-2.167,2.835-2.729,6.953-1.546,11.294c0.827,3.025,3.963,7.437,7.283,12.105c3.111,4.375,6.33,8.898,7.823,12.609
					c1.285,3.191,2.229,6.889,3.062,10.146c0.956,3.742,1.859,7.276,2.887,8.315l0.104,0.098c1.18-0.473,3.055-7.989,4.709-14.629
					l0.578-2.311c0.457-1.813,2.532-4.991,5.163-9.016c4.218-6.454,9.993-15.295,9.993-20.689c0-9.771-3.672-11.624-10.45-11.624
					l-0.578,0.005c-4.64,0.079-6.359,3.283-7.739,5.86c-0.842,1.57-1.569,2.926-2.851,3.17l-0.228,0.021
					c-0.998,0-1.728-1.1-2.936-2.918C124.058,138.977,121.704,135.432,118.491,135.432z"/>
			</g>
			<path opacity="0.6" fill="#C9BC9C" d="M135.004,170.555c0,9.284-2.15,14.401-4.874,14.401c-2.723,0-4.872-5.376-4.872-14.662
				c0-3.69-1.875-9.004-1.283-11.778c0.893-4.2,2.335-7.185,6.155-7.185c1.738,0,5.231,1.721,6.11,6.342
				C136.739,160.301,135.004,167.19,135.004,170.555z"/>
			<ellipse fill="#A48B78" cx="130.135" cy="168.93" rx="1.87" ry="14.718"/>
		</g>
		<path opacity="0.4" fill="#E8E8E8" d="M135.157,98.458c0,0,5.077-0.375,18.954,0.68c3.727,0.285,5.888,1.02,17.039,3.714
			c3.582,0.864,5.754,5.015,13.744,7.508c2.952,0.918,9.733,4.771,7.638,7.584c-1.838,2.465-2.36,2.203-12.407-4.078
			c-2.689-1.681-6.123-6.456-10.248-7.329c-2.935-0.625-8.294-1.082-11.871-1.924c-2.411-0.565-3.956-1.745-9.806-1.589
			C145.566,103.102,125.121,104.961,135.157,98.458z"/>
		<path opacity="0.9" fill="#EFEFEF" d="M58.663,110.744c0,0,0.922-3.024,15.391-16.148c5.771-5.233,16.585-7.799,33.042-11.859
			c5.291-1.303,11.062,1.604,23.253-0.731c4.499-0.863,16.077-1.072,15.334,3.073c-0.648,3.636-1.52,3.688-19.074,3.417
			c-4.7-0.074-11.995-1.26-17.994,0.372c-4.271,1.158-16.269,5.077-21.533,6.398c-3.543,0.897-6.347,7.16-13.867,10.89
			C69.832,107.843,50.176,123.503,58.663,110.744z"/>
	</g>
</g>
</svg>
