<?xml version="1.0" encoding="utf-8"?>
<!-- Generator: Adobe Illustrator 16.2.1, SVG Export Plug-In . SVG Version: 6.00 Build 0)  -->
<!DOCTYPE svg PUBLIC "-//W3C//DTD SVG 1.1//EN" "http://www.w3.org/Graphics/SVG/1.1/DTD/svg11.dtd">
<svg version="1.1" xmlns="http://www.w3.org/2000/svg" xmlns:xlink="http://www.w3.org/1999/xlink" x="0px" y="0px" width="256px"
	 height="256px" viewBox="0 0 256 256" enable-background="new 0 0 256 256" xml:space="preserve">
<g id="圖層_1">
	<g>
		<path fill="#483731" d="M158.949,117.253c2.692,23.979,6.755,64.612,1.75,80.604c-5.141,16.438-16.113,27.945-34.253,27.945
			c-14.911,0-26.514-9.562-31.699-27.406c-4.572-15.756-3.145-48.664-0.65-71.469c6.169-56.347,15.34-92.087,31.848-92.087
			C141.589,34.84,153.33,67.19,158.949,117.253z"/>
		<linearGradient id="SVGID_1_" gradientUnits="userSpaceOnUse" x1="127.042" y1="211.0469" x2="127.042" y2="22.9842">
			<stop  offset="0.0013" style="stop-color:#543400"/>
			<stop  offset="0.0188" style="stop-color:#563604;stop-opacity:0.9824"/>
			<stop  offset="0.1313" style="stop-color:#62401C;stop-opacity:0.8695"/>
			<stop  offset="0.2593" style="stop-color:#6C472F;stop-opacity:0.7411"/>
			<stop  offset="0.4097" style="stop-color:#724D3C;stop-opacity:0.5901"/>
			<stop  offset="0.6037" style="stop-color:#765044;stop-opacity:0.3953"/>
			<stop  offset="0.9976" style="stop-color:#775146;stop-opacity:0"/>
		</linearGradient>
		<path fill="url(#SVGID_1_)" d="M158.949,156.342c2.692,14.826,4.331,39.345-0.674,49.233
			c-5.143,10.162-13.689,17.868-31.829,17.868c-14.911,0-24.682-8.221-29.867-19.25c-4.573-9.736-4.977-27.773-2.482-41.872
			c6.169-34.822,16.438-62.872,32.946-62.872C142.687,99.449,153.33,125.402,158.949,156.342z"/>
		<path opacity="0.7" fill="#C9BC9C" d="M127.917,134.127c2.476,24.789,1.006,58.581,0.218,89.316c0,0-0.248,7.083-1.19,0
			C124.271,203.29,125.974,114.684,127.917,134.127z"/>
		<path opacity="0.1" fill="#A59471" d="M153.77,169.145c0,11.313-1.849,28.88-3.543,37.773
			c-3.669,19.276-15.854,16.525-22.812,16.525c-6.944,0-17.724-1.506-21.256-16.918c-2.029-8.847-4.327-24.45-4.327-35.806
			c0-31.135,14.657-55.874,25.585-55.874C138.349,114.846,153.77,138.011,153.77,169.145z"/>
		<g>
			<path fill="#3E3A39" d="M155.496,114.89c1.819,16.354,3.391,32.719,3.992,49.165c0.616,16.703,0.311,33.564-11.158,46.899
				c-17.638,20.506-43.467,4.746-50.254-15.838c-5.534-16.781-3.051-37.765-1.916-55.061c1.341-20.408,4.152-40.833,8.062-60.899
				c2.549-13.082,5.552-28.75,14.338-39.263c9.556-11.434,19.139,4.56,22.888,12.512C150.423,71.441,153.065,94.282,155.496,114.89
				c0.515,4.369,7.427,4.418,6.907,0c-2.132-18.088-7.425-92.233-40.386-85.328c-12.059,2.526-17.139,20.197-20.15,29.989
				c-7.899,25.7-10.594,53.811-12.612,80.505c-2.493,33.039-2.398,97.966,48.797,85.194c42.431-10.586,27.609-81.076,24.351-110.36
				C161.917,110.513,155.005,110.468,155.496,114.89z"/>
		</g>
	</g>
</g>
<g id="圖層_2">
</g>
</svg>
